<svg width="990" height="557" xmlns="http://www.w3.org/2000/svg" xmlns:xlink="http://www.w3.org/1999/xlink" xml:space="preserve" overflow="hidden"><defs><clipPath id="clip0"><rect x="0" y="0" width="990" height="557"/></clipPath><linearGradient x1="499.95" y1="56.925" x2="499.95" y2="154.688" gradientUnits="userSpaceOnUse" spreadMethod="reflect" id="fill1"><stop offset="0" stop-color="#F6F8FC"/><stop offset="0.46" stop-color="#E5EBF6"/><stop offset="0.98" stop-color="#DEEBF7"/><stop offset="1" stop-color="#ABC0E4"/><stop offset="1" stop-color="#ABC0E4"/><stop offset="1" stop-color="#CFDBEF"/><stop offset="1" stop-color="#DEEBF7"/></linearGradient></defs><g clip-path="url(#clip0)"><path d="M0 0 990 0 990 556.875 0 556.875Z" fill="#FFFFFF" transform="scale(1 1.00022)"/><path d="M25.9875 56.925 973.912 56.925 973.912 154.688 25.9875 154.688Z" fill="url(#fill1)" transform="scale(1 1.00022)"/><text font-family="Calibri,Calibri_MSFontService,sans-serif" font-weight="700" font-size="12" transform="matrix(-2.27325e-16 -1.23778 1.2375 -2.27376e-16 43.3275 132)">Phase I <tspan font-weight="400" font-size="12" x="36.3555" y="6.67839e-15">–</tspan><tspan font-weight="400" font-size="12" x="-10.5027" y="14">Implementati</tspan><tspan font-weight="400" font-size="12" x="-7.27109" y="28">on of Digital </tspan><tspan font-weight="400" font-size="12" x="4.8474" y="42">NHSHC</tspan></text><path d="M350.831 103.331 509.231 103.331 509.231 137.981 350.831 137.981Z" stroke="#000000" stroke-width="1.03125" stroke-miterlimit="8" fill="#FFFFFF" transform="scale(1 1.00022)"/><text font-family="Calibri,Calibri_MSFontService,sans-serif" font-weight="400" font-size="9" transform="matrix(1.2375 0 0 1.23778 369.04 118)">Patient starts but does not <tspan font-size="9" x="5.10419" y="10.5027">complete digital NHSHC</tspan></text><path d="M536.456 103.331 639.169 103.331 639.169 139.219 536.456 139.219Z" stroke="#000000" stroke-width="1.03125" stroke-miterlimit="8" fill="#FFFFFF" transform="scale(1 1.00022)"/><text font-family="Calibri,Calibri_MSFontService,sans-serif" font-weight="400" font-size="9" transform="matrix(1.2375 0 0 1.23778 545.636 118)">Patient completes <tspan font-size="9" x="7.97082" y="10.5027">digital NHSHC</tspan></text><path d="M0-0.257812 24.4276-0.257812 24.4276 103.06 24.1697 102.802 43.1833 102.802 43.1833 103.318 23.912 103.318 23.912 0 24.1697 0.257812 0 0.257812ZM42.1521 99.966 48.3396 103.06 42.1521 106.153Z" transform="matrix(1.83697e-16 1.00022 1 -1.83738e-16 430.031 138.012)"/><path d="M588.376 139.219 588.376 163.341 533.981 163.341 534.239 163.083 534.239 181.791 533.724 181.791 533.724 162.825 588.118 162.825 587.861 163.083 587.861 139.219ZM537.075 180.759 533.981 186.947 530.887 180.759Z" transform="scale(1 1.00022)"/><path d="M207.281 102.094 324.844 102.094 324.844 136.744 207.281 136.744Z" stroke="#000000" stroke-width="1.03125" stroke-miterlimit="8" fill="#FFFFFF" transform="scale(1 1.00022)"/><text font-family="Calibri,Calibri_MSFontService,sans-serif" font-weight="400" font-size="9" transform="matrix(1.2375 0 0 1.23778 229.084 116)">Patient declines <tspan font-size="9" x="11.875" y="11.3106">invitation</tspan></text><path d="M0-0.257812 25.2332-0.257812 25.2332 267.508 24.9755 267.25 44.7943 267.25 44.7943 267.767 24.7176 267.767 24.7176 0 24.9755 0.257812 0 0.257812ZM43.7631 264.414 49.9506 267.508 43.7631 270.602Z" transform="matrix(1.83697e-16 1.00022 1 -1.83738e-16 266.681 136.774)"/><path d="M24.75 14.85 180.675 14.85 180.675 35.8875 24.75 35.8875Z" stroke="#000000" stroke-width="2.32031" stroke-miterlimit="8" fill="#FFFFFF" transform="scale(1 1.00022)"/><text font-family="Calibri,Calibri_MSFontService,sans-serif" font-weight="400" font-size="9" transform="matrix(1.2375 0 0 1.23778 79.0428 30)">TickerTest</text><path d="M639.169 120.398 815.8 120.398 815.8 276.418 815.284 276.418 815.284 120.656 815.541 120.914 639.169 120.914ZM818.635 275.386 815.541 281.573 812.447 275.386Z" transform="scale(1 1.00022)"/><path d="M0 0.257812-18.5627 0.257812-18.305 0-18.305 385.374-18.5627 385.116 173.866 385.116 173.866 385.632-18.8206 385.632-18.8206-0.257812 0-0.257812ZM172.835 382.28 179.023 385.374 172.835 388.467Z" transform="matrix(1.83697e-16 1.00022 1 -1.83738e-16 430.031 103.354)"/><path d="M25.9875 267.3 976.387 267.3 976.387 513.562 25.9875 513.562Z" fill="#F4B183" fill-opacity="0.501961" transform="scale(1 1.00022)"/><text font-family="Calibri,Calibri_MSFontService,sans-serif" font-weight="700" font-size="12" transform="matrix(-2.27325e-16 -1.23778 1.2375 -2.27376e-16 43.3267 490)">Phase III <tspan font-weight="400" font-size="12" x="43.6266" y="8.01407e-15">–</tspan><tspan font-weight="400" font-size="12" x="51.7056" y="9.49816e-15">Surveys and interviews</tspan></text><path d="M27.225 154.688 975.15 154.688 975.15 267.3 27.225 267.3Z" fill="#FFE699" fill-opacity="0.501961" transform="scale(1 1.00022)"/><text font-family="Calibri,Calibri_MSFontService,sans-serif" font-weight="700" font-size="12" transform="matrix(-2.27325e-16 -1.23778 1.2375 -2.27376e-16 44.2747 240)">Phase II <tspan font-weight="400" font-size="12" x="39.5871" y="7.27203e-15">–</tspan><tspan font-weight="400" font-size="12" x="-12.9264" y="14">Receipt of non</tspan><tspan font-weight="400" font-size="12" x="55.7451" y="14">-</tspan><tspan font-weight="400" font-size="12" x="-4.0395" y="28">identifiable </tspan><tspan font-weight="400" font-size="12" x="-6.4632" y="42">anonymised </tspan><tspan font-weight="400" font-size="12" x="12.9264" y="56">data</tspan></text><path d="M359.494 186.244 708.469 186.244 708.469 240.694 359.494 240.694Z" stroke="#000000" stroke-width="1.03125" stroke-miterlimit="8" fill="#FFFFFF" transform="scale(1 1.00022)"/><text font-family="Calibri,Calibri_MSFontService,sans-serif" font-weight="700" font-size="9" transform="matrix(1.2375 0 0 1.23778 366.074 197)">TickerTest<tspan font-size="9" x="41.0417" y="0">creates anonymised patient</tspan><tspan font-size="9" x="146.875" y="0">-</tspan><tspan font-size="9" x="149.875" y="0">level dataset for invited eligible </tspan><tspan font-size="9" x="2.97082" y="10.5027">cohort and all who started HC using format specified and agreed with </tspan><tspan font-size="9" x="0.470822" y="21.8133">CHAD team </tspan><tspan font-size="9" x="45.4708" y="21.8133">(</tspan><tspan font-size="9" x="48.4708" y="21.8133">age</tspan><tspan font-size="9" x="61.4708" y="21.8133">, </tspan><tspan font-size="9" x="65.4708" y="21.8133">gender</tspan><tspan font-size="9" x="92.4708" y="21.8133">, </tspan><tspan font-size="9" x="96.4708" y="21.8133">ethnicity</tspan><tspan font-size="9" x="129.471" y="21.8133">, </tspan><tspan font-size="9" x="133.471" y="21.8133">LSOA</tspan><tspan font-size="9" x="152.471" y="21.8133">/</tspan><tspan font-size="9" x="156.471" y="21.8133">deprivation</tspan><tspan font-size="9" x="199.471" y="21.8133">, </tspan><tspan font-size="9" x="203.471" y="21.8133">HC</tspan><tspan font-size="9" x="214.471" y="21.8133">/</tspan><tspan font-size="9" x="218.471" y="21.8133">health data</tspan><tspan font-size="9" x="260.471" y="21.8133">, </tspan><tspan font-size="9" x="100.729" y="33.1239">HC complete</tspan><tspan font-size="9" x="149.729" y="33.1239">/</tspan><tspan font-size="9" x="153.729" y="33.1239">not</tspan><tspan font-size="9" x="166.729" y="33.1239">)</tspan></text><path d="M0 0 155.925 0 155.925 30.9375 0 30.9375Z" stroke="#000000" stroke-width="1.03125" stroke-miterlimit="8" fill="#FFFFFF" transform="matrix(-1 0 0 1.00022 550.069 396.708)"/><text font-family="Calibri,Calibri_MSFontService,sans-serif" font-weight="400" font-size="9" transform="matrix(1.2375 0 0 1.23778 410.062 408)">CHAD obtains consent and <tspan font-size="9" x="13.9583" y="11.3106">conducts interview</tspan></text><path d="M0 0 127.462 0 127.462 30.9375 0 30.9375Z" stroke="#000000" stroke-width="1.03125" stroke-miterlimit="8" fill="#FFFFFF" transform="matrix(-1 0 0 1.00022 536.456 446.219)"/><text font-family="Calibri,Calibri_MSFontService,sans-serif" font-weight="400" font-size="9" transform="matrix(1.2375 0 0 1.23778 441.398 465)">Transcription</text><path d="M0 0 123.75 0 123.75 32.175 0 32.175Z" stroke="#000000" stroke-width="1.03125" stroke-miterlimit="8" fill="#FFFFFF" transform="matrix(-1 0 0 1.00022 701.044 293.972)"/><text font-family="Calibri,Calibri_MSFontService,sans-serif" font-weight="400" font-size="9" transform="matrix(1.2375 0 0 1.23778 597.21 307)">Patient completes <tspan font-size="9" x="8.75" y="11.3106">online survey</tspan></text><path d="M0-0.257812 117.093-0.257812 117.093 189.88 116.577 189.88 116.577 0 116.835 0.257812 0 0.257812ZM119.929 188.849 116.835 195.036 113.741 188.849Z" transform="matrix(1.83697e-16 1.00022 1 -1.83738e-16 639.169 326.154)"/><path d="M0 0 76.725 0 76.725 30.9375 0 30.9375Z" stroke="#000000" stroke-width="1.03125" stroke-miterlimit="8" fill="#FFFFFF" transform="matrix(-1 0 0 1.00022 911.419 427.652)"/><text font-family="Calibri,Calibri_MSFontService,sans-serif" font-weight="400" font-size="9" transform="matrix(1.2375 0 0 1.23778 853.969 447)">Analysis</text><path d="M0 0 169.537 0 169.537 64.35 0 64.35Z" stroke="#000000" stroke-width="1.03125" stroke-miterlimit="8" fill="#FFFFFF" transform="matrix(-1 0 0 1.00022 556.256 279.119)"/><text font-family="Calibri,Calibri_MSFontService,sans-serif" font-weight="400" font-size="9" transform="matrix(1.2375 0 0 1.23778 406.801 295)">Survey respondents provide <tspan font-size="9" x="4.84582" y="10.5027">contact details to express </tspan><tspan font-size="9" x="8.95833" y="21.8133">interest in an interview</tspan><tspan font-size="9" x="-10.2583" y="32.316">(</tspan><tspan font-size="9" x="-7.2583" y="32.316">responders and non</tspan><tspan font-size="9" x="66.9292" y="32.316">-</tspan><tspan font-size="9" x="69.9292" y="32.316">responders</tspan><tspan font-size="9" x="111.929" y="32.316">)</tspan></text><path d="M0 0 131.175 0 131.175 48.2625 0 48.2625Z" stroke="#000000" stroke-width="1.03125" stroke-miterlimit="8" fill="#FFFFFF" transform="matrix(-1 0 0 1.00022 287.719 405.372)"/><text font-family="Calibri,Calibri_MSFontService,sans-serif" font-weight="400" font-size="9" transform="matrix(1.2375 0 0 1.23778 170.339 426)">CHAD obtains consent <tspan font-size="9" x="-2.08333" y="10.5027">and conducts interview</tspan></text><path d="M0 0 174.487 0 174.487 56.925 0 56.925Z" stroke="#000000" stroke-width="1.03125" stroke-miterlimit="8" fill="#FFFFFF" transform="matrix(-1 0 0 1.00022 902.756 281.594)"/><text font-family="Calibri,Calibri_MSFontService,sans-serif" font-weight="700" font-size="9" transform="matrix(1.2375 0 0 1.23778 737.978 293)">TickerTest<tspan font-size="9" x="41.0417" y="0">send a link to patients </tspan><tspan font-size="9" x="5.57089" y="11.3106">to complete the online survey </tspan><tspan font-size="9" x="31.7708" y="22.6212">hosted by CHAD </tspan><tspan font-size="9" x="-0.729167" y="33.1239">(</tspan><tspan font-size="9" x="2.27085" y="33.1239">responders and non</tspan><tspan font-size="9" x="77.7084" y="33.1239">-</tspan><tspan font-size="9" x="80.7084" y="33.1239">responders</tspan><tspan font-size="9" x="124.708" y="33.1239">)</tspan></text><path d="M0 0 131.175 0 131.175 60.6375 0 60.6375Z" stroke="#000000" stroke-width="1.03125" stroke-miterlimit="8" fill="#FFFFFF" transform="matrix(-1 0 0 1.00022 287.719 334.819)"/><text font-family="Calibri,Calibri_MSFontService,sans-serif" font-weight="400" font-size="9" transform="matrix(1.2375 0 0 1.23778 172.657 349)">Local Authority email <tspan font-size="9" x="-5.05" y="11.3106">invitations for interview </tspan><tspan font-size="9" x="-1.3" y="21.8133">to commissioners and </tspan><tspan font-size="9" x="-0.154166" y="33.1239">health care providers</tspan></text><path d="M0-0.257812 18.8205-0.257812 18.8205 63.8757 5.15641 63.8757 5.15641 63.3601 18.5626 63.3601 18.3049 63.6179 18.3049 0 18.5626 0.257812 0 0.257812ZM6.18766 66.7116 0.000162402 63.6179 6.18766 60.5241Z" transform="matrix(-1 1.22492e-16 1.22465e-16 1.00022 156.544 365.763)"/><path d="M708.469 213.211 930.844 213.211 930.844 443.638 917.179 443.638 917.179 443.122 930.585 443.122 930.328 443.379 930.328 213.469 930.585 213.726 708.469 213.726ZM918.211 446.473 912.024 443.379 918.211 440.285Z" transform="scale(1 1.00022)"/><path d="M215.944 183.769 326.081 183.769 326.081 245.644 215.944 245.644Z" stroke="#000000" stroke-width="1.03125" stroke-miterlimit="8" fill="#FFFFFF" transform="scale(1 1.00022)"/><text font-family="Calibri,Calibri_MSFontService,sans-serif" font-weight="400" font-size="9" transform="matrix(1.2375 0 0 1.23778 222.426 198)">Anonymised patient<tspan font-size="9" x="74" y="0">-</tspan><tspan font-size="9" x="1.25" y="11.3106">level dataset sent to </tspan><tspan font-size="9" x="8.38332" y="21.8133">CHAD via secure </tspan><tspan font-size="9" x="14.7375" y="33.1239">data transfer</tspan></text><path d="M0.00986354-0.257624 27.3851 0.790482 27.3653 1.30572-0.00986354 0.257624ZM26.4631-2.08284 32.5277 1.24537 26.2265 4.10013Z" transform="matrix(-1 0 0 1.00022 358.609 213.517)"/><path d="M0.00177247-0.257806 22.459-0.103408 22.4554 0.412205-0.00177247 0.257806ZM21.4474-2.94636 27.6133 0.189847 21.4048 3.24099Z" transform="matrix(-1 0 0 1.00022 728.657 310.063)"/><path d="M760.444 354.544 871.819 354.544 871.819 411.469 760.444 411.469Z" stroke="#000000" stroke-width="1.03125" stroke-miterlimit="8" fill="#FFFFFF" transform="scale(1 1.00022)"/><text font-family="Calibri,Calibri_MSFontService,sans-serif" font-weight="400" font-size="9" transform="matrix(1.2375 0 0 1.23778 769.209 366)">TickerTest<tspan font-size="9" x="40.1042" y="0">send two </tspan><tspan font-size="9" x="-0.570796" y="11.3106">reminder invitations </tspan><tspan font-size="9" x="14.4792" y="22.6212">to those not </tspan><tspan font-size="9" x="16.3042" y="33.1239">responding</tspan></text><path d="M0.257787-0.00361875 0.40433 10.4356-0.111245 10.4428-0.257787 0.00361875ZM3.22551 9.36462 0.218917 15.595-2.96137 9.45147Z" transform="matrix(-1 0 0 1.00022 816.35 338.532)"/><path d="M0 0 132.412 0 132.412 25.9875 0 25.9875Z" stroke="#000000" stroke-width="1.03125" stroke-miterlimit="8" fill="#FFFFFF" transform="matrix(-1 0 0 1.00022 288.956 300.161)"/><text font-family="Calibri,Calibri_MSFontService,sans-serif" font-weight="700" font-size="9" transform="matrix(1.2375 0 0 1.23778 178.719 317)">Phase I completed</text><path d="M0-0.257812 19.3358-0.257812 19.3358 52.3054 5.6718 52.3054 5.6718 51.7897 19.078 51.7897 18.8203 52.0476 18.8203 0 19.078 0.257812 0 0.257812ZM6.70304 55.1414 0.515544 52.0476 6.70304 48.9539Z" transform="matrix(-1 1.22492e-16 1.22465e-16 1.00022 157.06 313.777)"/><path d="M0.00310542-0.257794 16.0066-0.0650131 16.0004 0.450575-0.00310542 0.257794ZM15.0096-2.91316 21.1594 0.254889 14.935 3.27388Z" transform="matrix(-1 0 0 1.00022 577.415 310.063)"/><path d="M287.786 428.545 403.639 459.37 403.507 459.869 287.652 429.042ZM403.372 456.364 408.556 460.944 401.78 462.344Z" transform="scale(1 1.00022)"/><path d="M472.364 427.546 472.881 440.572 472.365 440.592 471.849 427.566ZM475.673 439.429 472.828 445.735 469.49 439.675Z" transform="scale(1 1.00022)"/><path d="M0.0152045-0.257364 293.456 17.0785 293.426 17.5932-0.0152045 0.257364ZM292.593 14.1866 298.588 17.6399 292.228 20.3633Z" transform="matrix(1 0 0 -1.00022 536.456 461.387)"/><path d="M0 0 155.925 0 155.925 30.9375 0 30.9375Z" stroke="#000000" stroke-width="1.03125" stroke-miterlimit="8" fill="#FFFFFF" transform="matrix(-1 0 0 1.00022 550.069 354.623)"/><text font-family="Calibri,Calibri_MSFontService,sans-serif" font-weight="400" font-size="9" transform="matrix(1.2375 0 0 1.23778 409.447 368)">CHAD invite participant for <tspan font-size="9" x="32.3417" y="10.5027">interview</tspan></text><path d="M305.044 343.406 376.819 343.406 376.819 396.619 305.044 396.619Z" stroke="#000000" stroke-width="1.03125" stroke-miterlimit="8" fill="#FFFFFF" transform="scale(1 1.00022)"/><text font-family="Calibri,Calibri_MSFontService,sans-serif" font-weight="400" font-size="9" transform="matrix(1.2375 0 0 1.23778 317.994 353)">Up to two <tspan font-size="9" x="1.19582" y="10.5027">reminder </tspan><tspan font-size="9" x="-0.887513" y="21.8133">invitations </tspan><tspan font-size="9" x="10.5208" y="33.1239">sent</tspan></text><path d="M287.783 365.431 300.35 368.68 300.221 369.178 287.654 365.931ZM300.062 365.676 305.278 370.219 298.513 371.667Z" transform="scale(1 1.00022)"/><path d="M393.456 369.775 381.973 369.69 381.977 369.173 393.459 369.259ZM382.983 372.533 376.819 369.394 383.029 366.346Z" transform="scale(1 1.00022)"/><path d="M0.257808-0.00145618 0.293159 6.25701-0.222459 6.25993-0.257808 0.00145618ZM3.12323 5.20976 0.0644734 11.4146-3.06417 5.24471Z" transform="matrix(-1 0 0 1.00022 472.171 343.483)"/><path d="M0.257786-0.00367338 0.342336 5.9297-0.173238 5.93705-0.257786 0.00367338ZM3.1633 4.85815 0.158016 11.0891-3.02358 4.94631Z" transform="matrix(-1 0 0 1.00022 472.265 385.568)"/><path d="M0 0.257812-18.5619 0.257812-18.3041 0-18.3041 549.822-18.5619 549.565 174.864 549.565 174.864 550.08-18.8198 550.08-18.8198-0.257812 0-0.257812ZM173.832 546.729 180.019 549.822 173.832 552.916Z" transform="matrix(1.83697e-16 1.00022 1 -1.83738e-16 266.681 102.117)"/></g></svg>