<svg width="997" height="561" xmlns="http://www.w3.org/2000/svg" xmlns:xlink="http://www.w3.org/1999/xlink" xml:space="preserve" overflow="hidden"><defs><clipPath id="clip0"><rect x="0" y="0" width="997" height="561"/></clipPath></defs><g clip-path="url(#clip0)"><path d="M0 0 997 0 997 560.812 0 560.812Z" fill="#FFFFFF" transform="scale(1 1.00033)"/><path d="M24.925 14.955 181.952 14.955 181.952 36.1413 24.925 36.1413Z" stroke="#000000" stroke-width="2.33672" stroke-miterlimit="8" fill="#FFFFFF" transform="scale(1 1.00033)"/><text font-family="Calibri,Calibri_MSFontService,sans-serif" font-weight="400" font-size="9" transform="matrix(1.24625 0 0 1.24667 79.6017 30)">TickerTest</text><path d="M26.1713 47.3575 980.799 47.3575 980.799 249.25 26.1713 249.25Z" fill="#C5E0B4" fill-opacity="0.501961" transform="scale(1 1.00033)"/><text font-family="Calibri,Calibri_MSFontService,sans-serif" font-weight="700" font-size="12" transform="matrix(-2.28932e-16 -1.24667 1.24625 -2.29009e-16 43.6328 223)">Phase <tspan font-size="12" x="32.0856" y="5.89402e-15">0 </tspan><tspan font-weight="400" font-size="12" x="40.107" y="7.36753e-15">–</tspan><tspan font-weight="400" font-size="12" x="48.1283" y="8.84103e-15">Preparation for </tspan><tspan font-weight="400" font-size="12" x="21.6578" y="14">implementation</tspan></text><path d="M125.248 62.9356 237.411 62.9356 237.411 126.494 125.248 126.494Z" stroke="#000000" stroke-width="1.03854" stroke-miterlimit="8" fill="#FFFFFF" transform="scale(1 1.00033)"/><text font-family="Calibri,Calibri_MSFontService,sans-serif" font-weight="400" font-size="9" transform="matrix(1.24625 0 0 1.24667 142.421 79)">Contracts signed <tspan font-size="9" x="-3.33333" y="10.4278">between practices </tspan><tspan font-size="9" x="23.8542" y="21.6578">and </tspan><tspan font-size="9" x="-0.470834" y="32.8877">iPlato</tspan>/<tspan font-size="9" x="24.1125" y="32.8877">TickerTest</tspan></text><path d="M415.624 70.4131 580.129 70.4131 580.129 119.017 415.624 119.017Z" stroke="#000000" stroke-width="1.03854" stroke-miterlimit="8" fill="#FFFFFF" transform="scale(1 1.00033)"/><text font-family="Calibri,Calibri_MSFontService,sans-serif" font-weight="400" font-size="9" transform="matrix(1.24625 0 0 1.24667 429.23 85)">TickerTest<tspan font-size="9" x="40.1042" y="0">provide training to </tspan><tspan font-size="9" x="10.4708" y="10.4278">general practice staff </tspan><tspan font-size="9" x="87.4708" y="10.4278">(</tspan><tspan font-size="9" x="90.4708" y="10.4278">if </tspan><tspan font-size="9" x="31.1458" y="21.6578">appropriate</tspan><tspan font-size="9" x="74.1458" y="21.6578">)</tspan></text><path d="M606.301 70.4131 724.694 70.4131 724.694 119.017 606.301 119.017Z" stroke="#000000" stroke-width="1.03854" stroke-miterlimit="8" fill="#FFFFFF" transform="scale(1 1.00033)"/><text font-family="Calibri,Calibri_MSFontService,sans-serif" font-weight="400" font-size="9" transform="matrix(1.24625 0 0 1.24667 619.424 85)">OHID provide other <tspan font-size="9" x="-1.24999" y="10.4278">training materials to </tspan><tspan font-size="9" x="-2.86254" y="21.6578">general practice staff</tspan></text><path d="M864.274 155.158 958.989 155.158 958.989 203.762 864.274 203.762Z" stroke="#000000" stroke-width="1.03854" stroke-miterlimit="8" fill="#FFFFFF" transform="scale(1 1.00033)"/><text font-family="Calibri,Calibri_MSFontService,sans-serif" font-weight="400" font-size="9" transform="matrix(1.24625 0 0 1.24667 876.429 170)">Practice search <tspan font-size="9" x="-0.570804" y="10.4278">for and identify </tspan><tspan font-size="9" x="-1.35416" y="21.6578">eligible patients</tspan></text><path d="M618.763 141.449 720.956 141.449 720.956 218.717 618.763 218.717Z" stroke="#000000" stroke-width="1.03854" stroke-miterlimit="8" fill="#FFFFFF" transform="scale(1 1.00033)"/><text font-family="Calibri,Calibri_MSFontService,sans-serif" font-weight="400" font-size="9" transform="matrix(1.24625 0 0 1.24667 630.996 157)">Eligible patients<tspan font-size="9" x="57" y="0">’ </tspan><tspan font-size="9" x="-2.08335" y="11.2299">NHS numbers are </tspan><tspan font-size="9" x="2.70832" y="22.4599">extracted from </tspan><tspan font-size="9" x="1.5125" y="32.8877">practice system </tspan><tspan font-size="9" x="-1.97918" y="44.1176">and sent to iPlato</tspan></text><path d="M259.843 70.4131 385.714 70.4131 385.714 119.017 259.843 119.017Z" stroke="#000000" stroke-width="1.03854" stroke-miterlimit="8" fill="#FFFFFF" transform="scale(1 1.00033)"/><text font-family="Calibri,Calibri_MSFontService,sans-serif" font-weight="400" font-size="9" transform="matrix(1.24625 0 0 1.24667 267.571 85)">T<tspan font-size="9" x="3.99999" y="0">&amp;</tspan><tspan font-size="9" x="10" y="0">Cs agreed by general </tspan><tspan font-size="9" x="6.19581" y="10.4278">practice for iPlato to </tspan><tspan font-size="9" x="2.75832" y="21.6578">access patient records</tspan></text><path d="M490.399 135.218 580.129 135.218 580.129 226.194 490.399 226.194Z" stroke="#000000" stroke-width="1.03854" stroke-miterlimit="8" fill="#FFFFFF" transform="scale(1 1.00033)"/><text font-family="Calibri,Calibri_MSFontService,sans-serif" font-weight="400" font-size="9" transform="matrix(1.24625 0 0 1.24667 503.337 150)">iPlato creates <tspan font-size="9" x="-3.64585" y="10.4278">unique user IDs </tspan><tspan font-size="9" x="-4.47918" y="21.6578">for each patient </tspan><tspan font-size="9" x="5.10416" y="32.8877">and shares </tspan><tspan font-size="9" x="3.125" y="43.3155">information </tspan><tspan font-size="9" x="-3.125" y="54.5455">with </tspan><tspan font-size="9" x="15.4167" y="54.5455">TickerTest</tspan></text><path d="M261.089 156.404 434.318 156.404 434.318 205.008 261.089 205.008Z" stroke="#000000" stroke-width="1.03854" stroke-miterlimit="8" fill="#FFFFFF" transform="scale(1 1.00033)"/><text font-family="Calibri,Calibri_MSFontService,sans-serif" font-weight="400" font-size="9" transform="matrix(1.24625 0 0 1.24667 271.226 171)">Tickertest creates a user account <tspan font-size="9" x="0.991671" y="11.2299">for each patient and returns this </tspan><tspan font-size="9" x="22.5" y="21.6578">information to iPlato</tspan></text><path d="M9.58942e-07-0.259635 16.948-0.259573 16.948 0.259699-9.58942e-07 0.259635ZM15.9095-3.11556 22.1408 8.17749e-05 15.9095 3.11569Z" transform="matrix(1 0 0 -1.00033 237.411 95.3701)"/><path d="M0.00133956-0.259633 24.1779-0.134894 24.1751 0.38437-0.00133956 0.259633ZM23.1541-2.99621 29.3691 0.151529 23.1219 3.23497Z" transform="matrix(1 0 0 -1.00033 385.714 94.2749)"/><path d="M0.0019265-0.259629 20.5642-0.10705 20.5604 0.412206-0.0019265 0.259629ZM19.5469-2.97066 25.7549 0.191107 19.5007 3.26041Z" transform="matrix(1 0 0 -1.00033 580.129 94.3144)"/><path d="M0.000842147-0.259634 33.2805-0.151689 33.2789 0.36758-0.000842147 0.259634ZM32.2512-3.01103 38.4724 0.124788 32.231 3.22019Z" transform="matrix(-1 0 0 1.00033 618.601 180.143)"/><path d="M0.00142206-0.259631 50.9309 0.0193195 50.928 0.538583-0.00142206 0.259631ZM49.908-2.84231 56.122 0.307393 49.8738 3.38884Z" transform="matrix(-1 0 0 1.00033 490.44 180.143)"/><path d="M348.586 205.006 349.191 266.995 348.671 267 348.068 205.011ZM352.036 265.929 348.981 272.19 345.806 265.99Z" transform="scale(1 1.00033)"/><path d="M26.1713 249.25 980.799 249.25 980.799 545.858 26.1713 545.858Z" fill="#BDD7EE" fill-opacity="0.501961" transform="scale(1 1.00033)"/><text font-family="Calibri,Calibri_MSFontService,sans-serif" font-weight="700" font-size="12" transform="matrix(-2.28932e-16 -1.24667 1.24625 -2.29009e-16 43.6333 524)">Phase I <tspan font-weight="400" font-size="12" x="37.7005" y="6.92547e-15">–</tspan><tspan font-weight="400" font-size="12" x="44.9198" y="8.25163e-15">Implementation of Digital NHSHC</tspan></text><path d="M483.995 354.558 483.995 368.578 472.952 368.578 473.211 368.319 473.211 376.887 472.693 376.887 472.693 368.059 483.734 368.059 483.475 368.319 483.475 354.558ZM476.068 375.848 472.952 382.079 469.836 375.848Z" transform="scale(1 1.00033)"/><path d="M219.963 272.306 477.937 272.306 477.937 295.984 219.963 295.984Z" stroke="#000000" stroke-width="1.03854" stroke-miterlimit="8" fill="#FFFFFF" transform="scale(1 1.00033)"/><text font-family="Calibri,Calibri_MSFontService,sans-serif" font-weight="400" font-size="9" transform="matrix(1.24625 0 0 1.24667 241.374 287)">iPlato invite eligible patients for digital NHSHC</text><path d="M435.564 319.663 532.772 319.663 532.772 354.558 435.564 354.558Z" stroke="#000000" stroke-width="1.03854" stroke-miterlimit="8" fill="#FFFFFF" transform="scale(1 1.00033)"/><text font-family="Calibri,Calibri_MSFontService,sans-serif" font-weight="400" font-size="9" transform="matrix(1.24625 0 0 1.24667 443.786 334)">Patient agrees to <tspan font-size="9" x="5.93749" y="11.2299">digital NHSHC</tspan></text><path d="M287.261 319.663 388.207 319.663 388.207 354.558 287.261 354.558Z" stroke="#000000" stroke-width="1.03854" stroke-miterlimit="8" fill="#FFFFFF" transform="scale(1 1.00033)"/><text font-family="Calibri,Calibri_MSFontService,sans-serif" font-weight="400" font-size="9" transform="matrix(1.24625 0 0 1.24667 299.184 334)">Patient does not <tspan font-size="9" x="15.2625" y="11.2299">respond</tspan></text><path d="M349.35 295.984 349.35 307.978 338.357 307.978 338.616 307.719 338.616 314.262 338.098 314.262 338.098 307.46 349.091 307.46 348.83 307.719 348.83 295.984ZM341.473 313.223 338.357 319.454 335.241 313.223Z" transform="scale(1 1.00033)"/><path d="M0-0.259635 11.9945-0.259635 11.9945 135.167 11.7348 134.908 18.277 134.908 18.277 135.427 11.4752 135.427 11.4752 0 11.7348 0.259635 0 0.259635ZM17.2384 132.051 23.4696 135.167 17.2384 138.283Z" transform="matrix(1.83697e-16 1.00033 1 -1.83758e-16 348.327 296.083)"/><path d="M0-0.259635 14.4767-0.259635 14.4767 91.6992 14.2171 91.4396 23.2414 91.4396 23.2414 91.9589 13.9575 91.9589 13.9575 0 14.2171 0.259635 0 0.259635ZM22.2029 88.5836 28.4342 91.6992 22.2029 94.8148Z" transform="matrix(1.83697e-16 1.00033 1 -1.83758e-16 484.168 354.677)"/><path d="M435.564 381.976 511.586 381.976 511.586 472.952 435.564 472.952Z" stroke="#000000" stroke-width="1.03854" stroke-miterlimit="8" fill="#FFFFFF" transform="scale(1 1.00033)"/><text font-family="Calibri,Calibri_MSFontService,sans-serif" font-weight="400" font-size="9" transform="matrix(1.24625 0 0 1.24667 455.784 398)">Patient <tspan font-size="9" x="-4.42499" y="10.4278">starts but </tspan><tspan font-size="9" x="-2.91666" y="21.6578">does not </tspan><tspan font-size="9" x="-4.21665" y="32.8877">complete </tspan><tspan font-size="9" x="1.92918" y="44.1176">digital </tspan><tspan font-size="9" x="0.0541664" y="54.5455">NHSHC</tspan></text><path d="M532.772 383.222 618.763 383.222 618.763 431.826 532.772 431.826Z" stroke="#000000" stroke-width="1.03854" stroke-miterlimit="8" fill="#FFFFFF" transform="scale(1 1.00033)"/><text font-family="Calibri,Calibri_MSFontService,sans-serif" font-weight="400" font-size="9" transform="matrix(1.24625 0 0 1.24667 558.271 398)">Patient <tspan font-size="9" x="-5.99171" y="10.4278">completes </tspan><tspan font-size="9" x="-12.3458" y="21.6578">digital NHSHC</tspan></text><path d="M729.679 281.029 840.596 281.029 840.596 330.879 729.679 330.879Z" stroke="#000000" stroke-width="1.03854" stroke-miterlimit="8" fill="#FFFFFF" transform="scale(1 1.00033)"/><text font-family="Calibri,Calibri_MSFontService,sans-serif" font-weight="400" font-size="9" transform="matrix(1.24625 0 0 1.24667 746.802 297)">Patient provides <tspan font-size="9" x="-7.34582" y="10.4278">details for receipt of </tspan><tspan font-size="9" x="-5.88749" y="21.6578">home blood test kit</tspan></text><path d="M859.289 281.029 956.497 281.029 956.497 330.879 859.289 330.879Z" stroke="#000000" stroke-width="1.03854" stroke-miterlimit="8" fill="#FFFFFF" transform="scale(1 1.00033)"/><text font-family="Calibri,Calibri_MSFontService,sans-serif" font-weight="400" font-size="9" transform="matrix(1.24625 0 0 1.24667 872.392 297)">Patient collects <tspan font-size="9" x="6.87497" y="10.4278">sample and </tspan><tspan font-size="9" x="-2.03335" y="21.6578">returns to MMH</tspan></text><path d="M853.058 348.327 962.728 348.327 962.728 398.177 853.058 398.177Z" stroke="#000000" stroke-width="1.03854" stroke-miterlimit="8" fill="#FFFFFF" transform="scale(1 1.00033)"/><text font-family="Calibri,Calibri_MSFontService,sans-serif" font-weight="400" font-size="9" transform="matrix(1.24625 0 0 1.24667 864.084 363)">Tickertest receives <tspan font-size="9" x="-2.23747" y="10.4278">sample results from </tspan><tspan font-size="9" x="23.9583" y="21.6578">MMH</tspan></text><path d="M728.433 383.222 815.671 383.222 815.671 431.826 728.433 431.826Z" stroke="#000000" stroke-width="1.03854" stroke-miterlimit="8" fill="#FFFFFF" transform="scale(1 1.00033)"/><text font-family="Calibri,Calibri_MSFontService,sans-serif" font-weight="400" font-size="9" transform="matrix(1.24625 0 0 1.24667 742.713 398)">iPlato writes <tspan font-size="9" x="-3.22912" y="10.4278">back data into </tspan><tspan font-size="9" x="-3.54163" y="21.6578">patient record</tspan></text><path d="M728.433 445.534 815.671 445.534 815.671 495.384 728.433 495.384Z" stroke="#000000" stroke-width="1.03854" stroke-miterlimit="8" fill="#FFFFFF" transform="scale(1 1.00033)"/><text font-family="Calibri,Calibri_MSFontService,sans-serif" font-weight="400" font-size="9" transform="matrix(1.24625 0 0 1.24667 739.793 461)">iPlato notifies <tspan font-size="9" x="4.16665" y="11.2299">practice via </tspan><tspan font-size="9" x="15.2083" y="22.4599">email</tspan></text><path d="M287.261 372.006 388.207 372.006 388.207 420.609 287.261 420.609Z" stroke="#000000" stroke-width="1.03854" stroke-miterlimit="8" fill="#FFFFFF" transform="scale(1 1.00033)"/><text font-family="Calibri,Calibri_MSFontService,sans-serif" font-weight="400" font-size="9" transform="matrix(1.24625 0 0 1.24667 311.776 386)">iPlato send <tspan font-size="9" x="3.125" y="11.2299">reminder </tspan><tspan font-size="9" x="-14.1667" y="22.4599">invitation </tspan><tspan font-size="9" x="22.8333" y="22.4599">(</tspan><tspan font-size="9" x="25.8333" y="22.4599">up to </tspan><tspan font-size="9" x="47.8333" y="22.4599">2</tspan><tspan font-size="9" x="52.8333" y="22.4599">)</tspan></text><path d="M141.449 319.663 239.903 319.663 239.903 354.558 141.449 354.558Z" stroke="#000000" stroke-width="1.03854" stroke-miterlimit="8" fill="#FFFFFF" transform="scale(1 1.00033)"/><text font-family="Calibri,Calibri_MSFontService,sans-serif" font-weight="400" font-size="9" transform="matrix(1.24625 0 0 1.24667 153.326 334)">Patient declines <tspan font-size="9" x="11.875" y="11.2299">invitation</tspan></text><path d="M349.447 295.984 349.447 307.978 191.299 307.978 191.559 307.719 191.559 314.262 191.04 314.262 191.04 307.46 349.188 307.46 348.929 307.719 348.929 295.984ZM194.415 313.223 191.299 319.454 188.184 313.223Z" transform="scale(1 1.00033)"/><path d="M338.616 354.558 338.616 366.354 338.098 366.354 338.098 354.558ZM341.473 365.316 338.357 371.547 335.241 365.316Z" transform="scale(1 1.00033)"/><path d="M772.311 431.826 772.311 440.263 771.793 440.263 771.793 431.826ZM775.168 439.223 772.052 445.455 768.936 439.223Z" transform="scale(1 1.00033)"/><path d="M0.0407822-0.256412 192.564 30.3643 192.482 30.8771-0.0407822 0.256412ZM191.987 27.3806 197.652 31.4363 191.008 33.5345Z" transform="matrix(1 0 0 -1.00033 532.772 337.504)"/><path d="M840.596 305.695 854.595 305.695 854.595 306.214 840.596 306.214ZM853.557 302.839 859.788 305.954 853.557 309.07Z" transform="scale(1 1.00033)"/><path d="M0.259594-0.00462285 0.487613 12.7997-0.0315752 12.809-0.259594 0.00462285ZM3.32466 11.7105 0.320476 17.9962-2.90561 11.8214Z" transform="matrix(-1 0 0 1.00033 908.213 330.99)"/><path d="M0-0.259635 277.929-0.259635 277.929 5.06637 277.41 5.06637 277.41 0 277.669 0.259635 0 0.259635ZM280.785 4.02783 277.669 10.2591 274.554 4.02783Z" transform="matrix(-1 1.22506e-16 1.22465e-16 1.00033 852.814 373.377)"/><path d="M516.571 267.321 662.382 267.321 662.382 302.216 516.571 302.216Z" stroke="#000000" stroke-width="1.03854" stroke-miterlimit="8" fill="#FFFFFF" transform="scale(1 1.00033)"/><text font-family="Calibri,Calibri_MSFontService,sans-serif" font-weight="400" font-size="9" transform="matrix(1.24625 0 0 1.24667 525.323 282)">TickerTest<tspan font-size="9" x="40.1042" y="0">notifies practice</tspan><tspan font-size="9" x="99.1042" y="0">, </tspan><tspan font-size="9" x="2.65415" y="10.4278">OHID</tspan><tspan font-size="9" x="22.6541" y="10.4278">, </tspan><tspan font-size="9" x="26.6541" y="10.4278">LA</tspan>, <tspan font-size="9" x="39.6542" y="10.4278">CHAD of uptake</tspan></text><path d="M0.00231994-0.259625 33.6211 0.0407835 33.6163 0.560034-0.00231994 0.259625ZM32.608-2.82438 38.8112 0.346808 32.5523 3.40662Z" transform="matrix(1 0 0 -1.00033 477.937 285.21)"/><path d="M631.226 390.699 717.217 390.699 717.217 425.594 631.226 425.594Z" stroke="#000000" stroke-width="1.03854" stroke-miterlimit="8" fill="#FFFFFF" transform="scale(1 1.00033)"/><text font-family="Calibri,Calibri_MSFontService,sans-serif" font-weight="400" font-size="9" transform="matrix(1.24625 0 0 1.24667 645.042 405)">NHSHC data <tspan font-size="9" x="-1.92923" y="11.2299">sent to iPlato</tspan></text><path d="M618.763 407.888 625.629 407.888 625.629 408.406 618.763 408.406ZM624.591 405.031 630.822 408.147 624.591 411.263Z" transform="scale(1 1.00033)"/><path d="M717.217 407.888 724.082 407.888 724.082 408.406 717.217 408.406ZM723.044 405.031 729.276 408.147 723.044 411.263Z" transform="scale(1 1.00033)"/><path d="M752.112 69.1669 856.797 69.1669 856.797 119.017 752.112 119.017Z" stroke="#000000" stroke-width="1.03854" stroke-miterlimit="8" fill="#FFFFFF" transform="scale(1 1.00033)"/><text font-family="Calibri,Calibri_MSFontService,sans-serif" font-weight="400" font-size="9" transform="matrix(1.24625 0 0 1.24667 773.49 85)">iPlato upload <tspan font-size="9" x="-11.5625" y="10.4278">invitation materials </tspan><tspan font-size="9" x="6.35412" y="21.6578">to system</tspan></text><path d="M856.797 93.8323 911.957 93.8323 911.957 150.178 911.438 150.178 911.438 94.0919 911.698 94.3515 856.797 94.3515ZM914.814 149.14 911.698 155.371 908.582 149.14Z" transform="scale(1 1.00033)"/><path d="M0.00311462-0.259616 21.8033 0.00191967 21.797 0.521153-0.00311462 0.259616ZM20.799-2.86633 26.9925 0.323829 20.7244 3.36448Z" transform="matrix(1 0 0 -1.00033 724.694 94.4472)"/><path d="M754.604 141.449 843.088 141.449 843.088 218.717 754.604 218.717Z" stroke="#000000" stroke-width="1.03854" stroke-miterlimit="8" fill="#FFFFFF" transform="scale(1 1.00033)"/><text font-family="Calibri,Calibri_MSFontService,sans-serif" font-weight="400" font-size="9" transform="matrix(1.24625 0 0 1.24667 762.749 157)">Practice selects <tspan font-size="9" x="10.625" y="11.2299">a random </tspan><tspan font-size="9" x="3.75002" y="22.4599">subsample of </tspan><tspan font-size="9" x="-0.93748" y="32.8877">eligible </tspan><tspan font-size="9" x="27.7084" y="32.8877">patients </tspan><tspan font-size="9" x="11.6667" y="44.1176">for </tspan><tspan font-size="9" x="24.5834" y="44.1176">invite</tspan></text><path d="M0.00481985-0.25959 15.6717 0.0312986 15.6621 0.55048-0.00481985 0.25959ZM14.6864-2.84348 20.8587 0.387286 14.5708 3.3867Z" transform="matrix(-1 0 0 1.00033 863.947 180.143)"/><path d="M0.0016655-0.25963 28.157-0.0790167 28.1537 0.440243-0.0016655 0.25963ZM27.1368-2.94161 33.348 0.213924 27.0968 3.28951Z" transform="matrix(-1 0 0 1.00033 754.304 180.143)"/><path d="M302.216 495.384 643.688 495.384 643.688 530.279 302.216 530.279Z" stroke="#000000" stroke-width="1.03854" stroke-miterlimit="8" fill="#FFFFFF" transform="scale(1 1.00033)"/><text font-family="Calibri,Calibri_MSFontService,sans-serif" font-weight="400" font-size="9" transform="matrix(1.24625 0 0 1.24667 314.155 510)">iPlato reminds patient to complete digital NHSHC <tspan font-size="9" x="182" y="0">(</tspan><tspan font-size="9" x="185" y="0">up to </tspan><tspan font-size="9" x="207" y="0">2 </tspan><tspan font-size="9" x="214" y="0">reminders </tspan><tspan font-size="9" x="65.625" y="11.2299">to complete outstanding actions</tspan><tspan font-size="9" x="185.625" y="11.2299">)</tspan></text><path d="M473.211 472.952 473.211 489.531 472.693 489.531 472.693 472.952ZM476.068 488.493 472.952 494.724 469.836 488.493Z" transform="scale(1 1.00033)"/><path d="M0-0.259635 201.066-0.259635 201.066 42.3436 200.547 42.3436 200.547 0 200.806 0.259635 0 0.259635ZM203.921 41.305 200.806 47.5362 197.69 41.305Z" transform="matrix(1 0 0 -1.00033 472.952 473.288)"/></g></svg>